<?xml version="1.0" encoding="iso-8859-1"?>
<!-- Generator: Adobe Illustrator 12.0.0, SVG Export Plug-In . SVG Version: 6.00 Build 51448)  -->
<!DOCTYPE svg PUBLIC "-//W3C//DTD SVG 1.1//EN" "http://www.w3.org/Graphics/SVG/1.1/DTD/svg11.dtd" [
	<!ENTITY ns_extend "http://ns.adobe.com/Extensibility/1.0/">
	<!ENTITY ns_ai "http://ns.adobe.com/AdobeIllustrator/10.0/">
	<!ENTITY ns_graphs "http://ns.adobe.com/Graphs/1.0/">
	<!ENTITY ns_vars "http://ns.adobe.com/Variables/1.0/">
	<!ENTITY ns_imrep "http://ns.adobe.com/ImageReplacement/1.0/">
	<!ENTITY ns_sfw "http://ns.adobe.com/SaveForWeb/1.0/">
	<!ENTITY ns_custom "http://ns.adobe.com/GenericCustomNamespace/1.0/">
	<!ENTITY ns_adobe_xpath "http://ns.adobe.com/XPath/1.0/">
	<!ENTITY ns_svg "http://www.w3.org/2000/svg">
	<!ENTITY ns_xlink "http://www.w3.org/1999/xlink">
]>
<svg  version="1.1" id="Layer_1" xmlns:x="&ns_extend;" xmlns:i="&ns_ai;" xmlns:graph="&ns_graphs;"
	 xmlns="&ns_svg;" xmlns:xlink="&ns_xlink;" viewBox="-276.187 -8.662 646 49"
	 style="overflow:hidden;enable-background:new -276.187 -8.662 646 49;" xml:space="preserve">
<metadata>
	<sfw  xmlns="&ns_sfw;">
		<slices></slices>
		<sliceSourceBounds  y="1475.877" x="676.838" height="46.266" bottomLeftOrigin="true" width="646.863"></sliceSourceBounds>
	</sfw>
</metadata>
<g>
	<polygon style="fill:#9E6C56;" points="369.258,38.615 -266.671,39.461 -259.941,34.405 -245.869,34.749 -222.092,36.933 
		-210.308,36.095 -202.744,34.405 -196.855,33.568 -187.941,36.653 -182.687,31.524 -171.478,32.978 -163.206,27.677 
		-151.92,32.412 -148.695,29.492 -146.381,31.885 -141.333,31.885 -141.333,29.365 -141.333,26.001 -135.521,28.108 
		-130.401,24.324 -126.534,24.687 -119.464,28.521 -120.204,18.292 -110.211,9.175 -102.643,10.014 -63.105,12.54 -61.772,12.908 
		-61.899,4.172 -63.105,3.29 -57.216,-5.96 -51.331,4.134 -53.858,5.811 -53.858,26.001 -36.636,25.829 -16.256,19.117 
		-18.91,16.515 -26.95,16.077 -31.325,13.226 -28.621,10.014 -29.611,5.188 -24.42,2.153 -21.894,2.445 -19.367,3.29 
		-13.345,-1.211 -7.59,3.29 -9.272,5.811 -7.522,8.668 -8.431,10.858 -11.57,12.781 -15.158,15.068 -8.431,21.791 -0.488,23.106 
		-0.428,10.89 10.917,0.763 34.469,6.649 37.834,10.858 36.148,11.695 36.148,21.791 50.45,24.324 50.45,19.27 53.817,12.54 
		56.338,12.54 57.179,14.223 87.46,14.223 88.301,10.858 90.829,0.763 95.875,10.858 94.194,10.858 93.834,17.657 97.555,15.905 
		107.65,14.223 126.999,8.338 138.776,15.068 142.979,12.54 148.868,8.338 156.436,5.811 168.212,3.29 180.834,-0.081 
		201.862,5.811 224.573,13.385 232.146,16.743 242.238,16.743 242.238,7.486 240.555,7.486 246.447,-3.446 252.336,7.486 
		249.81,7.486 250.648,16.743 266.631,16.743 267.478,10.858 284.3,2.445 292.707,11.695 297.752,1.608 301.122,-0.081 
		303.641,3.29 337.295,4.134 338.974,1.608 343.18,2.445 346.548,10.014 347.386,18.433 353.275,17.581 354.955,14.223 
		357.481,8.338 361.681,4.134 365.891,0.763 369.258,-0.081 	"/>
	
		<linearGradient id="XMLID_35_" gradientUnits="userSpaceOnUse" x1="9931.0918" y1="18058.5918" x2="33457.6797" y2="18058.5918" gradientTransform="matrix(0.0242 0 0 0.0242 -441.8063 -421.0197)">
		<stop  offset="0" style="stop-color:#9E6C56"/>
		<stop  offset="0.0721" style="stop-color:#8D5F4D"/>
		<stop  offset="0.177" style="stop-color:#7C5345"/>
		<stop  offset="0.3076" style="stop-color:#714A3E"/>
		<stop  offset="0.491" style="stop-color:#6A443B"/>
		<stop  offset="1" style="stop-color:#68433A"/>
	</linearGradient>
	<path style="fill:url(#XMLID_35_);" d="M369.258-0.919v39.535h-52.154l2.519-1.683h6.736c0,0,1.679-0.838,4.199,0l16.828-0.838
		c0,0,0.841-3.365,2.523-4.21c3.365-0.844,4.204-2.52,5.045-4.208l2.521-0.84c-6.728-5.046,0.848-2.52,3.368-5.892v-3.364
		l-1.679-0.838l2.52-2.521l1.686-3.365l3.362-0.844l-3.362-2.527l3.362-2.514C366.728,4.972,368.417-0.919,369.258-0.919
		L369.258-0.919z M365.891,16.743h-2.521l-1.68,5.048l3.361,1.682L365.891,16.743L365.891,16.743z M360.843,23.473l-4.201,0.852
		l4.201,1.677V23.473L360.843,23.473z M351.588,24.324l0.849,2.513l-5.892-2.513H351.588L351.588,24.324z M344.018,7.486
		l3.368,3.371l-0.841,17.663l-4.207,3.364V16.743L344.018,7.486L344.018,7.486z M294.394,20.109l47.106-0.84v13.46l-0.85,0.839
		V20.953l-6.728,0.838v2.533l-32.802-0.852v-1.682h-7.574L294.394,20.109L294.394,20.109z M304.49,25.161h5.886v3.359h-4.209v10.095
		h-1.677V25.161L304.49,25.161z M318.781,25.161h4.209v2.516h-4.209V25.161L318.781,25.161z M301.122,0.763l2.52,3.371
		l-5.889,15.135h-2.52L301.122,0.763L301.122,0.763z M282.611,2.445l4.21,9.25v10.939l-10.937,15.137h17.663l-0.841-17.662h-1.68
		l2.521-8.414L282.611,2.445L282.611,2.445z M232.985,26.001l4.209,5.046l10.092,0.838l1.684,1.684v5.047h-26.917v-1.683
		l0.838-1.676h1.683l5.048-1.688l2.525-4.203L232.985,26.001L232.985,26.001z M262.421,25.161l1.689,1.676l0.841,2.528l-2.53,2.52
		l-2.521-1.682l0.841,3.365l-1.679,0.837h-2.521h-2.527l-1.683,3.366h21.869h1.683l0.841-2.515l-0.841-4.21l-1.683-1.682
		l-2.526-1.688l-2.521-1.676l-1.679-0.84l-0.848,1.676l-1.679-0.836L262.421,25.161L262.421,25.161z M225.414,34.405l-0.841-3.364
		l-3.363-4.204l-4.205-2.52h-4.207l-4.209,2.52h1.687l3.361,1.677v1.689l-3.361,0.838l-1.687-0.838l1.687,2.526l0.841,1.676
		l-2.527,0.852l-1.679-0.852l-1.68-1.676v2.527l-0.841,1.676h-2.527l-0.841,1.683h8.415h11.773L225.414,34.405L225.414,34.405z
		 M172.418,3.29h0.845l3.362,2.521v1.676l-1.68,2.527l-2.527-0.838l-0.841-0.844l0.841,3.371l-1.682,1.676h-1.68l-0.841-0.838
		l-1.686,0.838l1.686,2.527l0.841,1.676l-1.679,1.688l-1.689-0.837l5.889,5.04l6.732,7.574l0.842,7.568h13.453l-2.517-5.047
		l-7.574-8.407v-5.052l3.364-1.677v-2.527l1.68-2.521l-0.838-1.683l-2.521-2.527l1.68-2.527l-1.68-2.514l-5.047-0.845l-5.048-1.682
		L172.418,3.29L172.418,3.29z M179.993,0.763l27.758,6.723l25.237,9.257h-29.443l-14.298,14.304l2.523-13.466l-4.209-12.609
		L179.993,0.763L179.993,0.763z M246.447-3.446l5.89,10.933h-5.89l1.68-2.514L246.447-3.446L246.447-3.446z M244.759,7.486
		l2.526,2.527v6.729h3.362V7.486H244.759L244.759,7.486z M-197.693,33.568l-0.841,2.526l1.679,0.838l-2.521,0.839l-1.685,0.844
		h88.324l-6.727-10.938l-4.209-0.84l-5.047-2.513h-2.521l-3.368,3.353h-1.679l-4.206-2.516l-1.68,0.84l1.68,5.046l-2.521,0.838
		h-3.368l-2.051-2.443l-2.997,2.443l-0.841,0.845l-10.933-5.053l-5.047,4.208l-3.369,1.684h-5.047l-5.048-1.684l-5.047,3.372
		l-2.521,0.838L-197.693,33.568L-197.693,33.568z M-110.211,9.175l9.248,10.094l0.848,19.34h10.932l0.842-13.448h15.98l2.527-3.37
		l2.524-0.846l4.206,5.056h3.362h5.885V4.972h2.527l-5.886-10.095l-1.688,9.257h-2.521v2.514l2.521,3.365l-0.838,6.729l-2.524-4.203
		l-40.376-2.526l-1.682-0.838H-110.211L-110.211,9.175z M-63.105,26.837v11.778h5.889l-2.527-11.778H-63.105L-63.105,26.837z
		 M10.917,0.763l24.389,5.885l3.369,4.209h-2.527v15.144l-8.41,0.836l1.683,11.778h-7.568V26.001l-3.368-5.892l-4.21,0.844V7.486
		L10.917,0.763L10.917,0.763z M-19.367,3.29h0.841l0.848,2.521l-1.689,1.676h-2.521l3.362,2.527l-1.679,2.526l-2.521,1.689h-1.689
		l-2.536,1.968l9.272-0.292l5.889,3.364l-2.528-4.202l2.178-1.651l3.038-1.904l1.514-0.654V8.331l-0.844-2.521l0.844-2.527
		l-2.526-2.52l-2.518-1.683l-3.368,0.838l-1.682,1.689L-19.367,3.29L-19.367,3.29z M126.161,8.338l12.615,7.568l2.526-2.521
		l5.886-4.209l7.571-3.365l-4.21,7.567l5.048,6.731l13.463,5.892l6.728,2.513l2.52,2.527l0.848,7.574h-62.248l1.68-3.358h4.209
		l-0.842-4.216l-0.841-1.676l5.051-0.838l4.199,0.838l2.528-0.838h3.357v-3.366h4.21v-1.688l-2.521-2.527l-3.368,1.689l-2.521-2.525
		l0.842-4.204L126.161,8.338L126.161,8.338z M99.242,15.905l3.36,11.771H91.667V10.858l-0.838-9.25l5.047,9.25h-1.682v6.724
		L99.242,15.905L99.242,15.905z M74.845,14.223h5.048l4.209,5.887v7.567l-8.686-0.395v-6.146l-3.095-4.394L74.845,14.223
		L74.845,14.223z M55.497,12.54l1.683,1.683l3.365,0.845l1.679,4.202v7.567H52.132l0.838-8.404L55.497,12.54L55.497,12.54z"/>
	<path style="fill:#2F1F1D;" d="M-103.563,9.175h-8.416l-9.254,9.257l0.845,8.404l-3.365-0.836l-3.368-2.528l-5.048-0.838
		l-1.679,2.526l-1.683,2.516l-5.047-3.359h-2.521v3.359l1.683,2.526l-5.051,0.838l-1.679-2.527l-4.206,3.371l-6.732-3.371
		l-4.204-2.513l-2.526,3.364l-5.886,3.364l-6.73-0.845l-4.206-1.682l-3.368,3.365l-1.683,2.526l-6.727-2.526l-2.527-0.839
		l-9.247,1.676l-8.416,1.689l-6.726,0.838l-8.416-0.838l-13.454-1.689l-17.669-0.837l-5.889,5.047l-10.092,0.846h646.863V-1.758
		L359.918,3.29l-4.205,6.724l-2.521,6.729l-5.048,0.851c0,0,0-8.418,0-7.58c0,0.844-3.368-8.406-4.209-8.406
		c-0.839,0-5.048-0.844-5.048-0.844l-1.68,2.526h-33.649l-2.522-3.371l-3.366,0.845l-4.205,10.094l-10.099-9.25l-16.821,9.25v5.886
		h-15.981V8.338h2.522l-6.728-13.46l-6.729,13.46h2.52v8.406h-6.727l-21.869-7.568l-15.139-4.203l-17.669-5.054l-18.504,4.216
		l-13.46,3.365l-7.568,5.886l-5.047,0.845l-9.258-5.892l-10.932,3.365l-12.615,3.365l-8.518,1.079l0.102-4.444h1.688
		c0,0-5.895-10.095-5.895-13.46c0-3.365-2.521,13.46-4.2,13.46c-1.686,0,0.842,0,0.842,0v2.527H57.934l-1.679-2.527l-3.368,0.838
		l-3.359,6.729v4.21l-12.621-1.688V11.702l2.527-0.845l-4.207-4.196L10.835,0.77l-11.78,10.095v11.771l-8.406-1.689l-1.689-3.352
		l-2.521-2.526l2.521-2.527l3.369-0.838l0.841-3.365l-1.682-2.527l0.841-2.527L-9.351,0.77l-3.369-2.527l-4.206,1.676l-1.683,1.689
		l-1.679,0.838l-3.368-1.676l-3.368,1.676l-3.359,2.527l0.842,4.203l-2.528,4.203l3.366,2.533l3.368,0.838h2.521h2.521h0.844
		l2.521,1.684l-12.616,4.202l-8.412,2.526l-11.777,0.84l-3.365-0.84v-18.5l2.527-1.689l-6.733-11.777l-7.568,10.939l2.521,0.838
		v7.568l-40.374-2.526L-103.563,9.175L-103.563,9.175z M369.166,0.763v37.008l-51.306,0.844l2.521-1.683l2.526-2.514l0.841-1.689
		l2.521,0.839v0.851h3.369l0.838-1.689l2.526-0.845l2.521,2.534l1.679,0.838l4.21-1.688l4.205-2.527l3.363-3.364h4.205l-1.68-1.676
		l-2.525-0.84l-1.68-1.688l2.526-2.527l2.521-1.676l2.517-1.676l0.852-3.371l1.679-4.209l3.369-5.042l5.037-3.365L369.166,0.763
		L369.166,0.763z M339.729,2.445l3.362,0.844l3.364,5.886l-2.52-2.527l-1.683,10.933h-6.729L339.729,2.445L339.729,2.445z
		 M302.718,3.29l-5.048,15.143h-5.048l5.889-16.825h2.528L302.718,3.29L302.718,3.29z M337.203,4.134l-3.358,13.447l-34.49,0.852
		l5.047-14.298H337.203L337.203,4.134z M341.41,19.27v12.615l-4.201,2.521l-2.526-2.521V19.27H341.41L341.41,19.27z M300.191,20.109
		v17.662h-5.888V20.109H300.191L300.191,20.109z M333.002,19.27v10.934l-2.526,0.844l-1.683,2.521l-1.679-0.839l-3.366-0.845
		l-2.522,1.684l-1.684,1.688l-2.521,1.676l-1.688,1.683h-4.201V26.001h1.681v-1.677H301.88v1.677h1.679v11.771h-2.52V20.109h2.52
		v1.682h2.523v-1.682h2.524v1.682h2.526v-1.682h2.518v1.682h2.53v-1.682h2.517v1.682h2.521v-1.682h2.53v1.682h2.521v-1.682h1.687
		v1.682h2.521v-1.682L333.002,19.27L333.002,19.27z M344.777,9.175l1.679,2.52v10.096l-1.679,1.682l1.679,2.528v2.52l-3.358,3.364
		V19.27L344.777,9.175L344.777,9.175z M317.022,24.324h8.406v1.677h-1.68v5.046h-5.051v-5.046h-1.676V24.324L317.022,24.324z
		 M292.623,11.695l-2.521,6.737v2.513h2.521v4.216v11.771h-9.253V26.001l-3.358-3.366l-3.368,3.366v10.932l-1.683-0.838v-1.676
		l-0.838-1.689h-1.688l-0.839,0.839v-2.527v-1.676l-0.841-0.852h-2.521V11.695h3.361v-2.52h3.365V6.649h5.051V4.134h5.048v2.514
		h2.521v2.527h3.367v2.52H292.623L292.623,11.695z M271.595,19.27v-4.202l0,0v-0.845h5.048v0.845h-0.842v4.202H271.595
		L271.595,19.27z M284.21,14.223v0.845h0.845v4.202h4.203v-4.202h0.844v-0.845H284.21L284.21,14.223z M304.401,26.001h5.886v11.771
		h-5.886V26.001L304.401,26.001z M305.246,27.677h4.202v2.526h-4.202V27.677L305.246,27.677z M322.908,26.001h-0.838v1.676h0.838
		V26.001L322.908,26.001z M320.381,26.001h-0.839v1.676h0.839V26.001L320.381,26.001z M322.908,28.521h-0.838v1.683h0.838V28.521
		L322.908,28.521z M320.381,28.521h-0.839v1.683h0.839V28.521L320.381,28.521z M161.404,6.649h0.838l2.526-2.514l1.683,0.838
		l3.365,0.838l3.361-2.521l1.686,0.845l4.2-0.845l0.842,0.845v0.838l2.526-0.838l3.362,0.838v1.689l-0.842,0.838l-0.838,2.515
		l0.838,0.844l1.688,0.845l0.838,1.683l-0.838,1.683l-0.847,0.844l-0.842,0.845h0.842v1.677h-0.842l-2.521,0.837h-0.838v1.684
		l-2.53,0.844h-1.679l-1.68-0.844l-0.842-0.844l-1.686,0.844l-0.841,1.682l-2.521-1.682l-2.527-2.521l-2.521-1.677h-0.848
		l-0.838-1.688v-1.683l1.686-2.521l-1.686-0.851l-1.679-0.838V6.649z M180.752,22.635l1.679,3.366l3.368,3.364l2.521,3.364
		l3.368,5.042h-5.895h-5.889v-7.568l-1.68-1.683l-1.679-2.52l-0.842-1.677l-1.687-1.689l0.845-0.838l3.362,3.364v-2.526H180.752
		L180.752,22.635z M262.339,26.001l1.682-0.84l0.849,0.84l1.679,0.836v1.684l0.842,0.845h2.525l1.68,0.838l-0.837,2.526v1.676h0.837
		l1.681-0.837l0.841,1.688v1.676l-2.521,0.839l-1.68-0.839l-3.367,0.839H261.5h-2.52l-4.207-1.677l-3.367,1.677l-2.521-1.677v-2.526
		h2.521l-0.843-3.365l1.684-1.689h2.526l1.68-0.837l0.838-1.676l1.689,0.836l1.679-1.676L262.339,26.001L262.339,26.001z
		 M248.044,33.568v2.526l0.841,1.677h-26.917l0.839-1.677v-1.689l4.203,0.852l3.369-1.688l1.679-3.365l0.847-3.366l3.358,4.204
		l5.051,0.844h4.207L248.044,33.568L248.044,33.568z M212.715,26.001h0.838l0.842-0.84h0.838c0,0,1.683,0,1.683,0.84
		c0,0.836,0,0.836,0,1.676c0,0.844,2.527,0,2.527,0l0.838,2.526l-0.838,1.682h-1.683l3.361,1.684l0.841,0.837v2.527l-0.841,0.839
		h-2.521h-0.841h-5.886h-5.889h-4.206l-0.842-2.515v-1.688h1.68l0.841-0.839l-0.841-0.845l-0.838-0.844v-0.838l0.838-0.838h0.841
		l1.68,0.838v-2.526l0.848-0.84h0.841l0.838,0.84l0.842,0.844l0.842-1.684l1.679-0.836l0.848,0.836L212.715,26.001L212.715,26.001z
		 M266.574,18.965l-0.025,6.196h-1.679l-0.843-0.844l-1.685,0.844l-1.683-0.844l-1.679,1.684l-1.687-0.84l-1.68,1.676l-0.841,0.84
		h-2.52l-2.528,2.526l0.841,2.526h-1.682l-2.521-1.688h-5.048l-4.205-0.838l-4.209-5.042l-1.688,5.042l-1.679,2.526l-2.521,1.676
		l-4.209-0.837l-1.68-1.684v-1.682l-0.847-3.366l-2.521,0.84v-2.516l-2.527-0.844l-2.521,0.844h-1.679l-2.527,1.676l-1.68-0.836
		l-2.523,0.836v1.677h-2.527l-0.838,1.689l0.838,2.526h-1.679v1.676l-0.841,0.852h-3.365l-2.521-0.852l-2.525-2.521l-1.684-0.844
		l1.684-1.676h1.685v-1.688h1.68v-1.676h2.521v-1.677h1.688v-1.689h1.68v-2.525h1.679v-1.677h2.527l-0.314-1.15l62.543,0.248
		L266.574,18.965z M199.252,36.095l0.842,1.677h-7.568l-1.682-4.203l3.361,2.526H199.252L199.252,36.095z M230.379,16.743h-27.759
		v0.838h-2.526v1.688h-1.683v1.676h-1.68v1.689h-1.679v1.683h-1.689v1.684h-1.679v1.676h-1.679v1.688l-2.531,1.676l-3.358-4.204
		l-1.688-5.046l0.848-1.682l2.521-0.84l1.679-0.837l-0.838-1.689l0.838-0.838v-1.683v-0.838v-1.689l-0.838-1.682h-1.682l1.682-2.515
		l0.838-1.688l-0.838-1.683l-3.361-1.682L181.59,3.29l-1.68-0.844h-3.368h-1.68l5.886-1.682l29.443,8.412L230.379,16.743
		L230.379,16.743z M246.359-2.608l5.048,10.095h-10.093L246.359-2.608L246.359-2.608z M243,8.338h6.727v8.406H243V8.338L243,8.338z
		 M135.325,22.635c1.68-0.838,3.368-0.838,4.206,1.689h0.842l2.527-0.852c3.361,0,2.52,4.204,3.361,5.893l3.365-0.845l-0.845,6.736
		c0,0,4.206,1.676,4.206,2.515c0,0-8.409-0.839-8.409,0h-31.122l-2.527-3.366c0,0,1.683-1.676,2.527-3.364
		c-2.527,0-1.687-1.676,1.683-4.204c1.679-0.836,4.206,0,5.047-0.836c0.838-0.84,0.838,0,1.68-1.684c0,0,0-2.526,2.526-1.683h4.2
		c0,0,0-3.365,2.526-1.689C131.119,19.27,134.484,23.473,135.325,22.635L135.325,22.635z M159.72,6.649l0.842,3.365l2.521,1.688
		l-1.679,3.365l1.679,2.514l2.527,2.528l3.358,1.688l2.527,1.676l1.682,1.688l2.527,2.516h-4.209l-10.092-2.516l-9.257-3.364
		l-8.412-5.054l-3.362-1.676l2.521-0.838l6.733-5.054l7.568-2.527H159.72L159.72,6.649z M176.542,29.365l1.683,2.52v5.887h-24.39
		l-3.368-3.366l0.842-5.892l-0.842-2.513l-3.368,1.676l-1.68-5.042h-3.367l-1.68,0.838l-2.523-3.363l-3.365,0.836l-2.521-1.676
		h-0.842l-3.367,0.84v1.682h-1.68l-2.526-0.846l-2.521,0.846v1.682l-1.679,1.688h-3.368l-3.368,1.676H94.953l0.025-9.561
		l9.231-1.371l12.611-3.365l10.096-3.365l9.253,5.892l15.983,7.567l14.298,5.042L176.542,29.365L176.542,29.365z M110.935,28.521
		v2.526l0.842,0.838l-2.526,2.521l1.685,3.366h-34.49v-4.203l-1.683-2.527l-2.526,2.527v4.203H22.612V26.001L110.935,28.521
		L110.935,28.521z M20.085,21.791v15.98h-7.571l0.841-15.98l5.047-1.682L20.085,21.791L20.085,21.791z M12.518,26.001l-1.689,11.771
		h-45.417h-28.605l0.842-10.935h31.125l42.903-0.836H12.518L12.518,26.001z M-66.552,20.109l1.679,3.363l-0.841,14.299h-9.254
		l4.206-15.137L-66.552,20.109L-66.552,20.109z M19.245,20.109l5.047,4.215h-2.527l-0.841-2.533L19.245,20.109L19.245,20.109z
		 M-65.714,20.953v-0.844l5.047,2.525v2.526h-2.527v-2.526L-65.714,20.953L-65.714,20.953z M-72.441,25.161l-4.209,12.61h-14.298
		v-12.61H-72.441L-72.441,25.161z M-107.773,37.772v-6.73l-2.526-3.364l-1.68,2.526v7.568h-6.727l-0.842-19.339l8.406-8.419
		l10.095,9.256v18.502H-107.773L-107.773,37.772z M-109.452,10.014h5.889l9.247,9.256v18.502h-5.051V19.27L-109.452,10.014
		L-109.452,10.014z M-57.305-5.122l5.047,10.095l-10.936-1.689L-57.305-5.122L-57.305-5.122z M-61.508,4.972l6.73,0.838v19.351
		h-4.209l-0.838-3.37v-5.048l-1.682-3.358V4.972L-61.508,4.972z M-63.194,13.385l2.527,3.358L-94.31,19.27l-7.575-8.412
		L-63.194,13.385L-63.194,13.385z M-91.79,24.324v13.447h-2.527V20.109l33.649-2.528v3.372l-2.527-0.844l-1.679-1.677l-0.838,0.837
		H-67.4l-3.358,1.684v-0.844l-2.527-0.84l-2.521,1.684v3.371h-4.209v-3.371l-3.364-0.844l-3.362,1.682v2.533H-91.79L-91.79,24.324z
		 M-123.753,26.837l3.365,1.684v4.209v5.042l-143.842,0.844l2.527-2.521l2.52-0.838l2.528,0.838l0.838,0.838l1.682-1.676h3.365
		l3.368,0.838h1.679l2.528-0.838l21.872,2.515l8.406-0.839l4.206-0.838l4.21-1.689l1.679,0.852l2.527-0.852l1.679-0.837l2.521,1.688
		l8.416,1.676l2.52-2.527l3.368-2.521l3.365,0.845l7.571,0.839l5.045-2.521l2.527-3.37l6.73,3.37l5.047,1.683l2.521-2.526
		l3.368,2.526l5.048-0.845v-3.364l-0.842-2.52l1.68,0.836l4.209,1.684l2.521-2.52l4.206-0.84h2.527l0.841,2.516L-123.753,26.837
		L-123.753,26.837z M-111.137,16.743c1.685,0,4.206,0.838,4.206,3.366c0,2.525-2.521,3.363-4.206,3.363
		c-1.683,0-3.362-1.682-3.362-3.363C-114.5,18.433-112.82,16.743-111.137,16.743L-111.137,16.743z M90.746,2.445l4.2,8.412
		l-6.556,0.096L90.746,2.445L90.746,2.445z M88.219,12.54h5.889v14.297h-5.889V12.54L88.219,12.54z M55.415,13.385l0.841,0.838
		l-2.521,4.21v7.568h-3.368l0.842-6.731l2.526-5.885H55.415L55.415,13.385z M74.762,20.953v5.884H68.03v-6.728l4.206-3.366
		L74.762,20.953L74.762,20.953z M86.537,20.109v6.728H84.01v-5.046l-1.68-0.838l-1.679,1.682v4.202h-2.528v-6.728H86.537
		L86.537,20.109z M77.283,20.109v6.728h-1.679v-5.884L77.283,20.109L77.283,20.109z M74.762,15.905l2.521,3.364l-1.679,0.84
		l-2.527-3.366L74.762,15.905L74.762,15.905z M74.762,15.068h11.774v4.202h-8.413L74.762,15.068L74.762,15.068z M67.188,19.27v6.731
		H63.83v-4.21l-1.688-1.682l-1.68,1.682v4.21h-5.047V19.27H67.188L67.188,19.27z M73.918,15.068l-5.889,3.365H55.415l2.52-3.365
		H73.918L73.918,15.068z M29.338,6.649l4.207,5.054v5.041l-7.575-2.514V9.175L29.338,6.649L29.338,6.649z M25.971,15.905
		l7.575,1.676v7.58h-7.575V15.905L25.971,15.905z M34.386,11.695h1.679v13.466h-1.679V11.695L34.386,11.695z M24.292,10.014v13.459
		l-5.047-4.203l-4.21,1.684V8.338L24.292,10.014L24.292,10.014z M10.835,1.608l3.362,5.879l-14.301,3.371L10.835,1.608L10.835,1.608
		z M-0.104,11.695l14.301-3.358v6.73l-14.301,1.676V11.695L-0.104,11.695z M-0.104,16.743l14.301-0.838v5.048l-1.679,0.838v3.37
		H-0.104V16.743L-0.104,16.743z M29.338,5.811l-4.209,3.365l-2.517-5.041L29.338,5.811L29.338,5.811z M30.177,6.649l5.048,0.851
		l2.527,3.358h-3.365L30.177,6.649L30.177,6.649z M21.765,4.134l2.527,5.041l-9.254-1.689L11.67,1.608L21.765,4.134L21.765,4.134z
		 M-20.293,4.134c0.844,0,2.526-0.845,2.526-0.845l1.679-1.682l2.527-1.689h1.679l2.531,2.527l0.838,1.689l-0.838,2.527l0.838,1.676
		v2.52l-2.521,0.845l-2.527,1.683l-0.838,1.683l-2.527,0.844l-1.683-0.844l-2.52,0.844h-2.527l-3.368-0.844l-2.517-0.838V12.54
		l1.679-2.526V6.661l-0.841-0.851l2.526-1.676l2.521-1.689L-20.293,4.134L-20.293,4.134z M-18.609,16.743h2.521l1.689-0.838
		l5.048,5.886l-2.531,3.37l-2.517-1.688l-0.848-3.363L-18.609,16.743L-18.609,16.743z M-0.945,23.473v1.688h-9.253l0.848-3.37
		L-0.945,23.473L-0.945,23.473z M-16.926,20.109l1.679,3.363l1.686,1.688l-23.554,0.84l10.933-2.528L-16.926,20.109L-16.926,20.109z
		"/>
	
		<linearGradient id="XMLID_36_" gradientUnits="userSpaceOnUse" x1="9722.8594" y1="18058.4316" x2="31410.123" y2="18058.4316" gradientTransform="matrix(0.0242 0 0 0.0242 -441.8063 -421.0197)">
		<stop  offset="0" style="stop-color:#D2B2A4"/>
		<stop  offset="0.2439" style="stop-color:#C9A596"/>
		<stop  offset="0.7038" style="stop-color:#B08471"/>
		<stop  offset="1" style="stop-color:#9E6C56"/>
	</linearGradient>
	<path style="fill:url(#XMLID_36_);" d="M105.971,17.581l6.727-1.676l12.615-4.21l0.848,6.737l-15.143,5.04L105.971,17.581
		L105.971,17.581z M306.167,5.811L302.8,15.905l16.822-10.095H306.167L306.167,5.811z M246.447,0.763L245.6,4.972l-3.362,1.676
		L246.447,0.763L246.447,0.763z M260.742,27.677h1.683v1.688l-3.361-0.845v3.364h-3.369l-1.679-0.838l-0.841,0.838v-1.682
		l2.52-0.838l1.689-1.688H260.742L260.742,27.677z M173.263,4.972l0.841,2.514l-3.367-0.838l-0.839,1.689h-1.682l-1.686,0.838
		l-1.681-2.527l2.528-0.838h2.52L173.263,4.972L173.263,4.972z M14.279,23.473l-1.682,10.933l5.889-10.933l-0.841-1.682
		L14.279,23.473L14.279,23.473z M-24.415,3.29h0.842l2.526,1.683l-0.841,1.676l-0.844,1.689l0.844,1.676l-3.365,2.526h-1.682
		l0.841-4.203V5.811L-24.415,3.29L-24.415,3.29z M10.077,3.29L5.87,7.486L2.502,9.175L10.077,3.29L10.077,3.29z M-110.211,11.695
		l-7.574,10.939v-4.202L-110.211,11.695L-110.211,11.695z M-58.057-3.446l-2.527,5.054h0.841L-58.057-3.446L-58.057-3.446z
		 M-67.311,22.635l-2.527,6.73l-4.203,5.04l3.362-10.933L-67.311,22.635L-67.311,22.635z M-162.364,29.365l1.683,1.676l-4.209,1.688
		L-162.364,29.365L-162.364,29.365z M-182.554,32.73l2.527,0.839l-2.527,1.688l-2.52,0.838L-182.554,32.73L-182.554,32.73z
		 M-198.534,35.257v0.838l-7.575,0.838l1.686-1.676H-198.534L-198.534,35.257z"/>
</g>
</svg>
